<svg width="38" height="38" viewBox="0 0 38 38" fill="none" xmlns="http://www.w3.org/2000/svg">
  <path fill-rule="evenodd" clip-rule="evenodd" d="M22.7497 20.5622C23.3546 21.167 23.3546 22.1447 22.7497 22.7495C22.4481 23.0511 22.0521 23.2027 21.6561 23.2027C21.2601 23.2027 20.8641 23.0511 20.5625 22.7495L18.5624 20.7494L16.5623 22.7495C16.2606 23.0511 15.8646 23.2027 15.4687 23.2027C15.0727 23.2027 14.6767 23.0511 14.375 22.7495C13.7702 22.1447 13.7702 21.167 14.375 20.5622L16.3751 18.5621L14.375 16.562C13.7702 15.9572 13.7702 14.9796 14.375 14.3748C14.9798 13.77 15.9575 13.77 16.5623 14.3748L18.5624 16.3749L20.5625 14.3748C21.1673 13.77 22.1449 13.77 22.7497 14.3748C23.3546 14.9796 23.3546 15.9572 22.7497 16.562L20.7496 18.5621L22.7497 20.5622ZM18.5624 3.09351C10.033 3.09351 3.09375 10.0327 3.09375 18.5621C3.09375 27.0915 10.033 34.0308 18.5624 34.0308C27.0918 34.0308 34.031 27.0915 34.031 18.5621C34.031 10.0327 27.0918 3.09351 18.5624 3.09351Z" fill="#C0CCDA"/>
  <mask id="mask0_214:230" style="mask-type:alpha" maskUnits="userSpaceOnUse" x="3" y="3" width="32" height="32">
    <path fill-rule="evenodd" clip-rule="evenodd" d="M22.7497 20.5622C23.3546 21.167 23.3546 22.1447 22.7497 22.7495C22.4481 23.0511 22.0521 23.2027 21.6561 23.2027C21.2601 23.2027 20.8641 23.0511 20.5625 22.7495L18.5624 20.7494L16.5623 22.7495C16.2606 23.0511 15.8646 23.2027 15.4687 23.2027C15.0727 23.2027 14.6767 23.0511 14.375 22.7495C13.7702 22.1447 13.7702 21.167 14.375 20.5622L16.3751 18.5621L14.375 16.562C13.7702 15.9572 13.7702 14.9796 14.375 14.3748C14.9798 13.77 15.9575 13.77 16.5623 14.3748L18.5624 16.3749L20.5625 14.3748C21.1673 13.77 22.1449 13.77 22.7497 14.3748C23.3546 14.9796 23.3546 15.9572 22.7497 16.562L20.7496 18.5621L22.7497 20.5622ZM18.5624 3.09351C10.033 3.09351 3.09375 10.0327 3.09375 18.5621C3.09375 27.0915 10.033 34.0308 18.5624 34.0308C27.0918 34.0308 34.031 27.0915 34.031 18.5621C34.031 10.0327 27.0918 3.09351 18.5624 3.09351Z" fill="white"/>
  </mask>
  <g mask="url(#mask0_214:230)">
    <rect width="37.1247" height="37.1247" fill="#C0CCDA"/>
  </g>
</svg>
